<svg height="480pt" viewBox="0 0 480 480" width="480pt" xmlns="http://www.w3.org/2000/svg" xmlns:xlink="http://www.w3.org/1999/xlink"><linearGradient id="a"><stop offset="0" stop-color="#662d91"/><stop offset=".437" stop-color="#3873b3"/><stop offset="1" stop-color="#00c9dd"/></linearGradient><linearGradient id="b" gradientUnits="userSpaceOnUse" x1="31.832" x2="343.544" xlink:href="#a" y1="177.941345" y2="489.661345"/><linearGradient id="c" gradientUnits="userSpaceOnUse" x1="202.024" x2="513.744" xlink:href="#a" y1="7.749345" y2="319.469345"/><path d="m400 431.773438c4.417969 0 8-3.582032 8-8v-40c0-4.417969-3.582031-8-8-8h-56v-192c0-13.253907-10.746094-24-24-24h-16v-8c0-4.417969-3.582031-8-8-8h-14.664062l-1.335938-48.214844c-.117188-4.335938-3.664062-7.785156-8-7.785156h-64c-4.335938 0-7.882812 3.449218-8 7.785156l-1.335938 48.214844h-14.664062c-4.417969 0-8 3.582031-8 8v32c0 4.417968 3.582031 8 8 8h13.328125l-1.777344 64h-27.550781c-4.417969 0-8 3.582031-8 8v8h-16c-13.253906 0-24 10.746093-24 24v32h-64c-13.253906 0-24 10.746093-24 24v112h-32v16h480v-16h-80zm-8-16h-312v-24h312zm-160 16v32h-80v-32zm16 0h72v32h-72zm20.441406-176h-32.554687l32-20zm-1.242187-44.425782-31.3125-19.574218h30.777343zm-53.414063-35.574218.4375-16h51.554688l.4375 16zm43.117188 48-45.238282 28.28125 1.542969-55.59375zm12 48 .441406 16h-58.671875l.441406-16zm16 0h19.097656v16h-18.664062zm-13.125 104h-37.890625l37.371093-18.679688zm-1.3125-47.046876-41.585938-24.953124h40.898438zm-7.082032 14.398438-55.015624 27.511719 1.65625-59.527344zm40.617188-159.351562v-8h16c4.417969 0 8 3.582031 8 8v192h-40.222656l-.800782-28.238282c1.414063-2.476562 1.332032-5.535156-.214843-7.929687l-.984375-35.832031h26.222656c4.417969 0 8-3.582032 8-8v-32c0-4.417969-3.582031-8-8-8h-27.550781l-1.777344-64h13.328125c4.417969 0 8-3.582032 8-8zm-16-24v16h-5.777344l-.445312-16zm-58.703125-16 35.199219-30.785157.832031 30.785157zm21.40625-40-35.792969 31.320312.875-31.320312zm-58.703125 72v-16h6.222656l-.445312 16zm-16 96h19.113281l-.449219 16h-18.664062zm-32 16h16v8c0 4.417968 3.582031 8 8 8h26.222656l-2 72h-56.222656v-80c0-4.417969 3.582031-8 8-8zm-96 64c0-4.417969 3.582031-8 8-8h64v32h-48c-4.417969 0-8 3.582031-8 8v40c0 4.417968 3.582031 8 8 8v32h-24zm40 112v-32h48v32zm248 0v-32h48v32zm0 0" fill="url(#b)"/><path d="m233.34375 3.332031-19.625 29.441407c-8.785156 13.179687-6.449219 30.832031 5.464844 41.273437 11.914062 10.441406 29.71875 10.441406 41.632812 0 11.914063-10.441406 14.25-28.09375 5.464844-41.273437l-19.625-29.441407c-1.570312-2.097656-4.035156-3.332031-6.65625-3.332031s-5.085938 1.234375-6.65625 3.332031zm16 59.425781c-5.539062 4.144532-13.148438 4.144532-18.6875 0-6.613281-4.964843-8.199219-14.230468-3.617188-21.113281l12.960938-19.472656 12.96875 19.449219c4.601562 6.890625 3.007812 16.175781-3.625 21.136718zm0 0" fill="url(#c)"/></svg>