<svg id="Pipes-Industry-Water-Gas-Oil" height="512" viewBox="0 0 64 64" width="512" xmlns="http://www.w3.org/2000/svg"><path d="m57 28a4 4 0 0 1 0 8h-30a4 4 0 0 0 0-8z" fill="#3d9ae2"/><path d="m57 36a4 4 0 0 1 0 8h-30a4 4 0 0 0 0-8z" fill="#1e81ce"/><path d="m57 44a4 4 0 0 1 0 8h-30a4 4 0 0 0 0-8z" fill="#3d9ae2"/><path d="m52 20a4 4 0 0 1 0 8h-30a4 4 0 0 0 0-8z" fill="#1e81ce"/><path d="m47 12a4 4 0 0 1 0 8h-30a4 4 0 0 0 0-8z" fill="#3d9ae2"/><path d="m22 28h5a4 4 0 0 0 0 8h-10a4 4 0 0 0 0-8z" fill="#3d9ae2"/><path d="m17 36h10a4 4 0 0 0 0 8h-10a4 4 0 0 0 0-8z" fill="#1e81ce"/><path d="m17 44h10a4 4 0 0 0 0 8h-10a4 4 0 0 0 0-8z" fill="#3d9ae2"/><path d="m17 20h5a4 4 0 0 0 0 8h-10a4 4 0 0 0 0-8z" fill="#1e81ce"/><path d="m12 28h5a4 4 0 0 0 0 8h-10a4 4 0 0 0 0-8z" fill="#3d9ae2"/><path d="m7 36h10a4 4 0 0 0 0 8h-10a4 4 0 0 0 0-8z" fill="#1e81ce"/><path d="m7 44h10a4 4 0 0 0 0 8h-10a4 4 0 0 0 0-8z" fill="#3d9ae2"/><g fill="#5aaae7"><circle cx="27" cy="32" r="4"/><circle cx="27" cy="40" r="4"/><circle cx="27" cy="48" r="4"/><circle cx="22" cy="24" r="4"/><circle cx="17" cy="16" r="4"/><circle cx="17" cy="32" r="4"/><circle cx="17" cy="40" r="4"/><circle cx="17" cy="48" r="4"/><circle cx="12" cy="24" r="4"/><circle cx="7" cy="32" r="4"/><circle cx="7" cy="40" r="4"/><circle cx="7" cy="48" r="4"/></g><path d="m62 40a4.994 4.994 0 0 0 -2.03-4 4.985 4.985 0 0 0 -2.97-9h-1.03a4.924 4.924 0 0 0 1.03-3 5 5 0 0 0 -5-5h-1.03a4.924 4.924 0 0 0 1.03-3 5 5 0 0 0 -5-5h-30a5 5 0 0 0 -5 5 4.9 4.9 0 0 0 1.15 3.14 5.4 5.4 0 0 0 -1.15-.14 5 5 0 0 0 -5 5 4.9 4.9 0 0 0 1.15 3.14 5.4 5.4 0 0 0 -1.15-.14 4.985 4.985 0 0 0 -2.97 9 4.956 4.956 0 0 0 0 8 4.985 4.985 0 0 0 2.97 9h50a4.985 4.985 0 0 0 2.97-9 4.994 4.994 0 0 0 2.03-4zm-5-11a3 3 0 0 1 0 6h-26.03a4.884 4.884 0 0 0 0-6zm-5-8a3 3 0 0 1 0 6h-25a5.4 5.4 0 0 0 -1.15.14 4.873 4.873 0 0 0 .12-6.14zm-31.03-8h26.03a3 3 0 0 1 0 6h-25a5.4 5.4 0 0 0 -1.15.14 4.873 4.873 0 0 0 .12-6.14zm4.03 11a3 3 0 1 1 -3-3 3.009 3.009 0 0 1 3 3zm-8-11a3 3 0 1 1 -3 3 3.009 3.009 0 0 1 3-3zm1.15 14.14a4.793 4.793 0 0 0 -2.3 0 4.862 4.862 0 0 0 0-6.28 4.793 4.793 0 0 0 2.3 0 4.862 4.862 0 0 0 0 6.28zm-6.15-6.14a3 3 0 1 1 -3 3 3.009 3.009 0 0 1 3-3zm-5 30a3 3 0 1 1 3-3 3.009 3.009 0 0 1 -3 3zm0-8a3 3 0 1 1 3-3 3.009 3.009 0 0 1 -3 3zm0-8a3 3 0 1 1 3-3 3.009 3.009 0 0 1 -3 3zm6.03 16h-2.06a4.884 4.884 0 0 0 0-6h2.06a4.884 4.884 0 0 0 0 6zm0-8h-2.06a4.884 4.884 0 0 0 0-6h2.06a4.884 4.884 0 0 0 0 6zm0-8h-2.06a4.873 4.873 0 0 0 -.12-6.14 5.4 5.4 0 0 0 1.15.14 5.4 5.4 0 0 0 1.15-.14 4.873 4.873 0 0 0 -.12 6.14zm3.97 16a3 3 0 1 1 3-3 3.009 3.009 0 0 1 -3 3zm0-8a3 3 0 1 1 3-3 3.009 3.009 0 0 1 -3 3zm0-8a3 3 0 1 1 3-3 3.009 3.009 0 0 1 -3 3zm6.03 16h-2.06a4.884 4.884 0 0 0 0-6h2.06a4.884 4.884 0 0 0 0 6zm0-8h-2.06a4.884 4.884 0 0 0 0-6h2.06a4.884 4.884 0 0 0 0 6zm0-8h-2.06a4.873 4.873 0 0 0 -.12-6.14 4.793 4.793 0 0 0 2.3 0 4.873 4.873 0 0 0 -.12 6.14zm3.97 16a3 3 0 1 1 3-3 3.009 3.009 0 0 1 -3 3zm0-8a3 3 0 1 1 3-3 3.009 3.009 0 0 1 -3 3zm0-8a3 3 0 1 1 3-3 3.009 3.009 0 0 1 -3 3zm33 13a3.009 3.009 0 0 1 -3 3h-26.03a4.884 4.884 0 0 0 0-6h26.03a3.009 3.009 0 0 1 3 3zm-3-5h-26.03a4.884 4.884 0 0 0 0-6h26.03a3 3 0 0 1 0 6z"/><path d="m54 47h2v2h-2z"/><path d="m48 47h4v2h-4z"/><path d="m54 39h2v2h-2z"/><path d="m48 39h4v2h-4z"/><path d="m54 31h2v2h-2z"/><path d="m48 31h4v2h-4z"/><path d="m49 23h2v2h-2z"/><path d="m43 23h4v2h-4z"/><path d="m44 15h2v2h-2z"/><path d="m38 15h4v2h-4z"/></svg>